{"scene":0,"asset":{"generator":"ImageToStl.com","version":"2.0"},"scenes":[{"name":"Scene","nodes":[0]}],"nodes":[{"name":"Node0","children":[1]},{"name":"Scene","children":[2]},{"name":"TwistedTorus","mesh":0}],"materials":[{"name":"Clear Plastic0","pbrMetallicRoughness":{"baseColorFactor":[1.0,1.0,1.0,1.0],"metallicFactor":0.5,"roughnessFactor":1.0},"doubleSided":true}],"meshes":[{"name":"Mesh0","primitives":[{"indices":3,"material":0,"attributes":{"POSITION":0,"NORMAL":1,"TEXCOORD_0":2}}]}],"accessors":[{"bufferView":0,"componentType":5126,"count":2370,"type":"VEC3","min":[-3.3234715,-3.4536216,-2.9704075],"max":[3.3317146,3.2593112,2.9704075]},{"bufferView":1,"componentType":5126,"count":2370,"type":"VEC3"},{"bufferView":2,"componentType":5126,"count":2370,"type":"VEC2"},{"bufferView":3,"componentType":5123,"count":31104,"type":"SCALAR"}],"bufferViews":[{"target":34962,"buffer":0,"byteLength":28440,"byteOffset":0},{"target":34962,"buffer":0,"byteLength":28440,"byteOffset":28440},{"target":34962,"buffer":0,"byteLength":18960,"byteOffset":56880},{"target":34963,"buffer":0,"byteLength":62208,"byteOffset":75840}],"buffers":[{"byteLength":138048,"uri":"data:application/octet-stream;base64,"}]}