{"scene":0,"asset":{"generator":"ImageToStl.com","version":"2.0"},"scenes":[{"name":"Scene","nodes":[0]}],"nodes":[{"name":"Node0","children":[1]},{"name":"","children":[2]},{"name":"","mesh":0}],"materials":[{"name":"Material0","pbrMetallicRoughness":{"baseColorFactor":[1.0,1.0,1.0,1.0],"metallicFactor":0.0,"roughnessFactor":0.8,"baseColorTexture":{"index":0}},"emissiveFactor":[0.0,0.0,0.0],"doubleSided":true}],"images":[{"bufferView":0,"name":"","mimeType":"image/jpeg"}],"textures":[{"sampler":0,"source":0}],"samplers":[{"magFilter":9729,"minFilter":9987}],"meshes":[{"name":"Mesh0","primitives":[{"indices":3,"material":0,"attributes":{"POSITION":0,"NORMAL":1,"TEXCOORD_0":2}}]}],"accessors":[{"bufferView":1,"componentType":5126,"count":11622,"type":"VEC3","min":[-0.999718,-0.735362,-0.391323],"max":[0.997642,0.73349,0.381283]},{"bufferView":2,"componentType":5126,"count":11622,"type":"VEC3"},{"bufferView":3,"componentType":5126,"count":11622,"type":"VEC2"},{"bufferView":4,"componentType":5123,"count":172116,"type":"SCALAR"}],"bufferViews":[{"buffer":0,"byteLength":986010,"byteOffset":0},{"target":34962,"buffer":0,"byteLength":139464,"byteOffset":986012},{"target":34962,"buffer":0,"byteLength":139464,"byteOffset":1125476},{"target":34962,"buffer":0,"byteLength":92976,"byteOffset":1264940},{"target":34963,"buffer":0,"byteLength":344232,"byteOffset":1357916}],"buffers":[{"byteLength":1702148,"uri":"data:application/octet-stream;base64,"}]}