{"scene":0,"asset":{"generator":"ImageToStl.com","version":"2.0"},"scenes":[{"name":"Scene","nodes":[0]}],"nodes":[{"name":"Node0","children":[1]},{"name":"","children":[2]},{"name":"","mesh":0}],"materials":[{"name":"Material0","pbrMetallicRoughness":{"baseColorFactor":[1.0,1.0,1.0,1.0],"metallicFactor":0.0,"roughnessFactor":0.8,"baseColorTexture":{"index":0}},"emissiveFactor":[0.0,0.0,0.0],"doubleSided":true}],"images":[{"bufferView":0,"name":"","mimeType":"image/jpeg"}],"textures":[{"sampler":0,"source":0}],"samplers":[{"magFilter":9729,"minFilter":9987}],"meshes":[{"name":"Mesh0","primitives":[{"indices":3,"material":0,"attributes":{"POSITION":0,"NORMAL":1,"TEXCOORD_0":2}}]}],"accessors":[{"bufferView":1,"componentType":5126,"count":14318,"type":"VEC3","min":[-0.751682,-0.998937,-0.626364],"max":[0.743692,0.98936,0.628133]},{"bufferView":2,"componentType":5126,"count":14318,"type":"VEC3"},{"bufferView":3,"componentType":5126,"count":14318,"type":"VEC2"},{"bufferView":4,"componentType":5123,"count":185067,"type":"SCALAR"}],"bufferViews":[{"buffer":0,"byteLength":745189,"byteOffset":0},{"target":34962,"buffer":0,"byteLength":171816,"byteOffset":745192},{"target":34962,"buffer":0,"byteLength":171816,"byteOffset":917008},{"target":34962,"buffer":0,"byteLength":114544,"byteOffset":1088824},{"target":34963,"buffer":0,"byteLength":370134,"byteOffset":1203368}],"buffers":[{"byteLength":1573504,"uri":"data:application/octet-stream;base64,"}]}