{"scene":0,"asset":{"generator":"ImageToStl.com","version":"2.0"},"scenes":[{"name":"Scene","nodes":[0]}],"nodes":[{"name":"Node0","children":[1]},{"name":"","children":[2]},{"name":"","mesh":0}],"materials":[{"name":"Material0","pbrMetallicRoughness":{"baseColorFactor":[1.0,1.0,1.0,1.0],"metallicFactor":0.0,"roughnessFactor":0.8,"baseColorTexture":{"index":0}},"emissiveFactor":[0.0,0.0,0.0],"doubleSided":true}],"images":[{"bufferView":0,"name":"","mimeType":"image/jpeg"}],"textures":[{"sampler":0,"source":0}],"samplers":[{"magFilter":9729,"minFilter":9987}],"meshes":[{"name":"Mesh0","primitives":[{"indices":3,"material":0,"attributes":{"POSITION":0,"NORMAL":1,"TEXCOORD_0":2}}]}],"accessors":[{"bufferView":1,"componentType":5126,"count":9656,"type":"VEC3","min":[-0.6627,-0.993749,-0.710822],"max":[0.665544,0.98971,0.709475]},{"bufferView":2,"componentType":5126,"count":9656,"type":"VEC3"},{"bufferView":3,"componentType":5126,"count":9656,"type":"VEC2"},{"bufferView":4,"componentType":5123,"count":163098,"type":"SCALAR"}],"bufferViews":[{"buffer":0,"byteLength":718284,"byteOffset":0},{"target":34962,"buffer":0,"byteLength":115872,"byteOffset":718284},{"target":34962,"buffer":0,"byteLength":115872,"byteOffset":834156},{"target":34962,"buffer":0,"byteLength":77248,"byteOffset":950028},{"target":34963,"buffer":0,"byteLength":326196,"byteOffset":1027276}],"buffers":[{"byteLength":1353472,"uri":"data:application/octet-stream;base64,"}]}